<?xml version="1.0" encoding="UTF-8"?><svg id="Layer_1" xmlns="http://www.w3.org/2000/svg" viewBox="0 0 960 320"><defs><style>.cls-1{fill:none;}.cls-2{fill:#fff;}</style></defs><path class="cls-2" d="M816.55,29c-71.81,0-130.06,58.25-130.06,130.12s58.25,130.06,130.06,130.06,130.12-58.25,130.12-130.06S888.42,29,816.55,29m-66.76,174.86c-15.97,0-37.75-12.69-31.95-40.11l9.87-47.85c.18-.82,.94-1.47,1.7-1.47h21.73c.82,0,1.35,.65,1.17,1.47l-9.75,47.33c-2.71,12.68,2.41,18.67,12.15,18.67s17.32-5.75,19.91-18.03l10.1-47.97c.18-.82,.94-1.47,1.76-1.47h21.67c.82,0,1.35,.65,1.17,1.47l-9.92,47.21c-5.99,28.36-24.78,40.76-49.62,40.76m147.5-3.06c-.12,.76-.94,1.41-1.76,1.41h-21.14c-.82,0-1.35-.65-1.17-1.41l10.1-47.56c.18-.76-.12-.94-.65-.35l-27.77,32.18c-.47,.59-1.06,1.12-1.17,1.12s-.53-.65-.88-1.35l-13.8-31.47c-.29-.7-.7-.64-.88,.12l-10.04,47.33c-.18,.76-.94,1.41-1.76,1.41h-20.84c-.76,0-1.29-.65-1.12-1.41l18.03-84.9c.18-.82,.94-1.47,1.76-1.47h22.72c.76,0,1.7,.65,2,1.36l12.57,31.29c.29,.7,.94,.88,1.41,.23l26.25-31.71c.53-.65,1.59-1.17,2.41-1.17h22.66c.82,0,1.35,.65,1.17,1.47l-18.08,84.9Z"/><path class="cls-2" d="M631.55,82.7h-8.73c-2.17,0-3.93,1.78-3.93,3.92v36.75c0,2.15-.15,3.92-.33,3.92-6.64-9.27-20.23-14.07-32.98-14.07-26.04,0-47.27,16.73-47.27,45.92s21.23,45.9,47.27,45.9c12.61,0,26.15-4.87,32.71-13.79,.14-.08,.42-.28,.45-.28,.09,0,.16,1.76,.16,3.91v3.29c0,2.13,1.76,3.89,3.93,3.89h8.73c2.15,0,3.91-1.76,3.91-3.89V86.61c0-2.13-1.76-3.92-3.91-3.92m-43.83,108.42c-22.38,0-31.84-15.41-31.84-31.99,0-20.06,12.43-32.01,31.84-32.01s32.15,12.09,32.15,32.01c0,16.58-9.62,31.99-32.15,31.99"/><path class="cls-2" d="M98.23,112.21c-12.49,0-25.59,3.95-33.73,15.8-.11,.06-.39,.28-.41,.28-.11,0-.16-1.78-.16-3.91v-5.28c0-2.14-1.78-3.91-3.92-3.91h-8.74c-2.17,0-3.93,1.77-3.93,3.91v79.05c0,2.15,1.76,3.92,3.93,3.92h8.74c2.14,0,3.92-1.77,3.92-3.92v-46.17c0-17.07,13.42-25.86,28.5-25.86,17.91,0,25.69,7.3,25.69,20.06v51.96c0,2.15,1.77,3.92,3.93,3.92h8.74c2.15,0,3.92-1.77,3.92-3.92v-55.28c0-21.72-15.57-30.67-36.47-30.67"/><path class="cls-2" d="M347.94,86.61c0-2.13,1.77-3.91,3.92-3.91h8.75c2.15,0,3.91,1.78,3.91,3.91v10.41c0,2.13-1.76,3.91-3.91,3.91h-8.75c-2.15,0-3.92-1.78-3.92-3.91v-10.41Zm0,32.5c0-2.15,1.77-3.92,3.92-3.92h8.75c2.15,0,3.91,1.77,3.91,3.92v79.04c0,2.15-1.76,3.92-3.91,3.92h-8.75c-2.15,0-3.92-1.76-3.92-3.92V119.11Z"/><path class="cls-2" d="M13.34,86.61c0-2.13,1.77-3.91,3.92-3.91h8.74c2.15,0,3.92,1.78,3.92,3.91v10.41c0,2.13-1.77,3.91-3.92,3.91h-8.74c-2.15,0-3.92-1.78-3.92-3.91v-10.41Zm0,32.5c0-2.15,1.77-3.92,3.92-3.92h8.74c2.15,0,3.92,1.77,3.92,3.92v79.04c0,2.15-1.77,3.92-3.92,3.92h-8.74c-2.15,0-3.92-1.76-3.92-3.92V119.11Z"/><path class="cls-2" d="M289.99,113.2c-12.61,0-26.16,4.89-32.71,13.81-.15,.06-.43,.26-.45,.26-.09,0-.18-1.76-.18-3.92v-4.26c0-2.15-1.75-3.92-3.93-3.92h-8.73c-2.16,0-3.91,1.77-3.91,3.92v112.52c0,2.15,1.75,3.93,3.91,3.93h8.73c2.18,0,3.93-1.78,3.93-3.93v-36.76c0-2.15,.15-3.91,.33-3.91,6.64,9.27,20.06,14.07,32.99,14.07,26.04,0,47.24-16.73,47.24-45.9s-21.21-45.92-47.24-45.92m-2.16,77.91c-19.23,0-32.16-12.11-32.16-31.99,0-16.58,9.62-32.01,32.16-32.01s31.84,15.43,31.84,32.01c0,20.04-12.43,31.99-31.84,31.99"/><path class="cls-2" d="M531.79,161.44c0-35.98-24.19-49.23-47.08-49.23-33.82,0-50.4,21.38-50.4,46.41s16.58,46.41,50.4,46.41c17.25,0,36.3-8.62,44.76-29.33h-.01c.78-2.01-.33-3.61-2.54-3.61h-10.05c-2.21,0-3.97,1.6-4.97,3.61v.02c-5.8,12.41-18.55,15.4-28,15.4-14.76,0-30.68-9.46-32.02-27.53h79.91v-2.15Zm-79.4-10.77c2.66-15.42,16.25-24.54,31.51-24.54s27.68,8.78,30.33,24.54h-61.84Z"/><path class="cls-2" d="M201.09,152.33l-23.55-3.16c-11.78-1.48-14.42-4.94-14.42-10.77,0-10.1,12.27-13.26,22.89-13.26,17.25,0,25.53,7.46,26.03,16.25,.09,2.08,1.79,3.75,3.91,3.75h8.77c2.11,0,3.84-1.69,3.93-3.75h-.04c-1.33-16.92-14.1-29.17-42.45-29.17-24.53,0-39.62,10.26-39.62,28.01,0,13.59,10.94,21.22,23.55,23.05l27.35,3.63c13.27,1.84,16.42,5.5,16.42,11.62s-5.31,13.59-26.53,13.59-27.32-9.58-27.36-17.34h.02c-.09-2.07-1.82-3.78-3.93-3.78h-8.77c-2.11,0-3.83,1.71-3.92,3.78h.03c1.84,25.13,24.54,30.26,44.43,30.26,26.52,0,43.59-9.45,43.59-29.65,0-12.11-8.46-19.92-30.33-23.05"/><path class="cls-2" d="M430.95,112.64h-.07c-2-.35-3.94-.43-6.88-.43-11.09,0-22.04,5.13-29.83,18.91h-.31v-12.01c0-2.15-1.76-3.92-3.92-3.92h-8.74c-2.16,0-3.92,1.77-3.92,3.92v3.55h-.01v70.79h.01v4.7c0,2.15,1.76,3.92,3.92,3.92h8.74c2.16,0,3.92-1.76,3.92-3.92v-40.67c.2-18.42,11.57-28.03,27.84-28.03,3.5,0,6.21,.32,9.19,1.02,2.07,.48,3.72-.87,3.72-3.16v-10.53c0-2.28-1.63-3.69-3.65-4.14"/><rect class="cls-1" x="13.33" y="29" width="933.33" height="260.17"/><rect class="cls-1" x="13.33" y="29" width="933.33" height="260.17"/></svg>