<?xml version="1.0" encoding="utf-8"?>
<!-- Generator: Adobe Illustrator 26.3.1, SVG Export Plug-In . SVG Version: 6.00 Build 0)  -->
<svg version="1.1" id="Layer_1" xmlns="http://www.w3.org/2000/svg" xmlns:xlink="http://www.w3.org/1999/xlink" x="0px" y="0px"
	 viewBox="0 0 1920 1080" style="enable-background:new 0 0 1920 1080;" xml:space="preserve">
<style type="text/css">
	.st0{clip-path:url(#SVGID_00000048472909606423318530000010321788542579096471_);}
	.st1{clip-path:url(#SVGID_00000018953541861055518100000007227566636004025523_);fill:#FFFFFF;}
</style>
<g id="Artwork_46_00000052789691612140382500000003534173875688112307_">
	<g>
		<defs>
			<rect id="SVGID_1_" x="513" y="335" width="797" height="441.27"/>
		</defs>
		<clipPath id="SVGID_00000106115761406040488770000002447596873976723376_">
			<use xlink:href="#SVGID_1_"  style="overflow:visible;"/>
		</clipPath>
		<g style="clip-path:url(#SVGID_00000106115761406040488770000002447596873976723376_);">
			<defs>
				<rect id="SVGID_00000017493356393794793950000017273614154192437683_" x="513" y="335" width="797" height="441.27"/>
			</defs>
			<clipPath id="SVGID_00000062884156115328515330000017271809411000138132_">
				<use xlink:href="#SVGID_00000017493356393794793950000017273614154192437683_"  style="overflow:visible;"/>
			</clipPath>
			<path style="clip-path:url(#SVGID_00000062884156115328515330000017271809411000138132_);fill:#FFFFFF;" d="M810.57,392.27
				c2.51-6.81,6.07-12.69,10.66-17.65c4.58-4.95,10.02-8.87,16.31-11.76c6.29-2.88,13.21-4.32,20.75-4.32
				c7.56,0,14.47,1.44,20.77,4.32c6.27,2.89,11.72,6.81,16.3,11.76c4.58,4.96,8.14,10.84,10.66,17.65
				c2.51,6.81,3.77,14.06,3.77,21.75c0,7.84-1.26,15.13-3.77,21.86c-2.53,6.74-6.08,12.58-10.66,17.53
				c-4.59,4.96-10.03,8.88-16.3,11.77c-6.3,2.88-13.21,4.32-20.77,4.32c-7.54,0-14.46-1.44-20.75-4.32
				c-6.29-2.89-11.72-6.81-16.31-11.77c-4.59-4.95-8.15-10.79-10.66-17.53c-2.52-6.73-3.77-14.02-3.77-21.86
				C806.8,406.33,808.05,399.08,810.57,392.27 M827.77,486.83c9.39,4.13,19.57,6.21,30.51,6.21c10.95,0,21.13-2.08,30.52-6.21
				c9.4-4.15,17.54-9.77,24.42-16.87c6.88-7.1,12.24-15.46,16.09-25.08c3.85-9.62,5.77-19.9,5.77-30.85
				c0-10.95-1.93-21.23-5.77-30.85c-3.85-9.62-9.21-17.97-16.09-25.08s-15.02-12.73-24.42-16.87c-9.39-4.14-19.57-6.22-30.52-6.22
				c-10.93,0-21.12,2.07-30.51,6.22c-9.4,4.14-17.54,9.76-24.42,16.87c-6.87,7.11-12.24,15.47-16.09,25.08
				c-3.85,9.62-5.77,19.9-5.77,30.85c0,10.95,1.93,21.23,5.77,30.85c3.85,9.61,9.22,17.97,16.09,25.08
				C810.23,477.05,818.37,482.68,827.77,486.83 M588.91,695.03h51.27c-2.37,13.47-7.95,24.24-16.76,32.3
				c-8.8,8.07-20.02,12.1-33.63,12.1c-7.55,0-14.47-1.44-20.75-4.32c-6.29-2.89-11.72-6.81-16.31-11.77
				c-4.58-4.96-8.14-10.8-10.65-17.53c-2.52-6.74-3.78-14.03-3.78-21.87c0-7.7,1.26-14.94,3.78-21.75
				c2.52-6.8,6.07-12.69,10.65-17.64c4.59-4.96,10.02-8.88,16.31-11.76c6.28-2.89,13.2-4.33,20.75-4.33c9.47,0,17.61,2,24.41,6
				c6.81,3.99,12.59,9.39,17.32,16.2l17.31-17.31c-7.1-8.58-15.58-15.46-25.41-20.64c-9.85-5.18-21.05-7.77-33.63-7.77
				c-10.95,0-21.12,2.07-30.52,6.22c-9.39,4.14-17.53,9.76-24.41,16.86c-6.88,7.11-12.25,15.47-16.09,25.08
				c-3.85,9.62-5.77,19.91-5.77,30.85c0,10.95,1.92,21.23,5.77,30.85c3.84,9.62,9.21,17.98,16.09,25.08
				c6.88,7.1,15.02,12.72,24.41,16.87c9.4,4.14,19.57,6.21,30.52,6.21c9.91,0,19.24-1.85,27.97-5.55
				c8.73-3.69,16.2-9.32,22.42-16.87v21.08h23.09V671.5h-74.36V695.03z M557.42,430.37l13.54-18.87l43.51,80.13h29.08l-56.38-102.99
				l37.3-52.38h-29.31l-37.73,54.17v-54.17h-24.86v155.37h24.86V430.37z"/>
			<path style="clip-path:url(#SVGID_00000062884156115328515330000017271809411000138132_);fill:#FFFFFF;" d="M1008.67,750.46
				c0,1.95-0.56,3.52-1.68,4.7s-2.66,1.77-4.61,1.77c-1.96,0-3.5-0.59-4.62-1.77c-1.13-1.18-1.68-2.74-1.68-4.7v-26.14h-6.08v25.81
				c0,1.84,0.3,3.54,0.93,5.08c0.61,1.54,1.47,2.86,2.58,3.96c1.1,1.11,2.42,1.97,3.94,2.59c1.01,0.41,2.09,0.67,3.22,0.81
				l-2.2,5.27c-0.14,0.33-0.26,0.68-0.35,1.06c-0.09,0.38-0.14,0.83-0.14,1.33c0,0.83,0.14,1.62,0.43,2.36
				c0.3,0.74,0.71,1.38,1.25,1.93c0.54,0.54,1.18,0.97,1.93,1.28c0.74,0.3,1.59,0.46,2.53,0.46c0.83,0,1.62-0.16,2.36-0.46
				c0.74-0.31,1.39-0.74,1.95-1.28c0.56-0.55,1.01-1.19,1.33-1.95c0.33-0.76,0.49-1.58,0.49-2.45h-4.46c0,0.47-0.16,0.87-0.47,1.19
				c-0.23,0.25-0.51,0.39-0.85,0.46c-0.13,0.03-0.25,0.03-0.37,0.03c-0.5,0-0.91-0.17-1.19-0.52c-0.3-0.34-0.44-0.73-0.44-1.17
				c0-0.4,0.07-0.74,0.19-1.03c0.13-0.29,0.32-0.72,0.57-1.3l2.28-5.44h-0.18c0.68-0.15,1.34-0.34,1.98-0.59
				c1.52-0.62,2.83-1.48,3.93-2.59c1.1-1.1,1.96-2.42,2.59-3.96c0.61-1.54,0.92-3.23,0.92-5.08v-25.81h-6.08V750.46z
				 M1108.75,739.54c-1.27-0.47-2.42-0.87-3.47-1.19c-1.05-0.33-1.96-0.69-2.72-1.06c-0.76-0.38-1.36-0.85-1.79-1.39
				c-0.44-0.55-0.66-1.25-0.66-2.12c0-1.16,0.38-2.12,1.14-2.88c0.76-0.76,1.78-1.14,3.05-1.14c0.98,0,1.9,0.28,2.77,0.82
				c0.87,0.55,1.54,1.34,2.01,2.39l4.07-4.07c-0.94-1.6-2.16-2.81-3.66-3.64c-1.5-0.83-3.28-1.25-5.35-1.25
				c-1.41,0-2.72,0.25-3.94,0.74c-1.21,0.49-2.27,1.18-3.18,2.09c-0.91,0.91-1.61,1.98-2.12,3.21c-0.5,1.23-0.76,2.59-0.76,4.07
				c0,2.1,0.56,3.88,1.69,5.35c1.12,1.47,2.55,2.55,4.29,3.23c1.34,0.51,2.62,0.94,3.85,1.28c1.23,0.34,2.33,0.76,3.29,1.25
				c0.96,0.49,1.73,1.13,2.31,1.93c0.58,0.8,0.87,1.9,0.87,3.31c0,1.92-0.53,3.47-1.6,4.67c-1.07,1.2-2.59,1.8-4.54,1.8
				c-0.98,0-1.85-0.17-2.61-0.52c-0.76-0.35-1.4-0.8-1.93-1.39c-0.52-0.58-0.92-1.27-1.19-2.06c-0.27-0.8-0.41-1.63-0.41-2.5h-6.08
				c0,1.7,0.31,3.28,0.93,4.75c0.61,1.47,1.47,2.76,2.58,3.89c1.11,1.12,2.4,2,3.88,2.63c1.49,0.63,3.1,0.95,4.84,0.95
				c1.7,0,3.29-0.31,4.78-0.95c1.49-0.63,2.78-1.5,3.88-2.61c1.11-1.1,1.98-2.41,2.61-3.91c0.63-1.5,0.95-3.14,0.95-4.92
				c0-2.9-0.71-5.19-2.12-6.87C1112.99,741.74,1111.11,740.45,1108.75,739.54 M1079.63,750.52l-12.23-26.19h-6.74v38.03h6.08v-26.18
				l12.22,26.18h6.74v-38.03h-6.08V750.52z M1037.36,730.09h5.76v26.52h-5.76v5.75h17.61v-5.75h-5.76v-26.52h5.76v-5.76h-17.61
				V730.09z M987.81,629.96c-0.66,1.65-1.53,3.03-2.64,4.16c-1.11,1.12-2.41,1.98-3.91,2.55c-1.5,0.58-3.12,0.87-4.86,0.87h-5.21
				v-26.51h5.21c1.74,0,3.36,0.29,4.86,0.87c1.5,0.58,2.81,1.43,3.91,2.55c1.1,1.13,1.98,2.51,2.64,4.16
				c0.66,1.65,0.98,3.54,0.98,5.68C988.79,626.41,988.47,628.31,987.81,629.96 M994.98,624.28c0-2.94-0.47-5.58-1.41-7.93
				c-0.95-2.36-2.24-4.35-3.88-5.98c-1.65-1.63-3.63-2.89-5.93-3.77c-2.3-0.89-4.81-1.33-7.53-1.33H965.1v38.03h11.14
				c2.72,0,5.23-0.44,7.53-1.33c2.3-0.89,4.27-2.15,5.93-3.77c1.64-1.63,2.94-3.63,3.88-5.97
				C994.51,629.86,994.98,627.21,994.98,624.28 M1028.56,677.62l9.13-12.82h-7.17l-9.24,13.26V664.8h-6.08v38.03h6.08v-15l3.32-4.62
				l10.65,19.62h7.12L1028.56,677.62z M922.34,724.33h-7.18l-9.23,13.26v-13.26h-6.09v38.03h6.09v-15l3.31-4.61l10.65,19.61h7.12
				l-13.8-25.21L922.34,724.33z M979.93,690.98l-12.22-26.19h-6.74v38.03h6.08v-26.19l12.23,26.19h6.74V664.8h-6.08V690.98z
				 M914.96,678.7v24.13h6.08V664.8h-6.74l-12.05,29.34l-12.07-29.34h-6.74v38.03h6.08V678.7l10,24.13h5.43L914.96,678.7z
				 M967,724.33h-6.08v38.03h24.18v-5.75H967V724.33z M952.5,629.63c-0.62,1.65-1.49,3.08-2.61,4.29c-1.12,1.21-2.45,2.17-3.99,2.88
				c-1.54,0.7-3.24,1.06-5.08,1.06c-1.85,0-3.54-0.36-5.08-1.06c-1.54-0.71-2.87-1.67-4-2.88c-1.12-1.21-1.99-2.64-2.61-4.29
				c-0.61-1.65-0.92-3.43-0.92-5.35c0-1.89,0.31-3.66,0.92-5.33c0.62-1.67,1.49-3.11,2.61-4.32c1.13-1.21,2.45-2.17,4-2.88
				c1.54-0.71,3.23-1.06,5.08-1.06c1.84,0,3.54,0.35,5.08,1.06c1.54,0.71,2.87,1.66,3.99,2.88c1.13,1.21,1.99,2.65,2.61,4.32
				c0.61,1.66,0.92,3.44,0.92,5.33C953.42,626.2,953.11,627.98,952.5,629.63 M954.26,610.59c-1.69-1.74-3.68-3.11-5.98-4.13
				c-2.3-1.02-4.79-1.52-7.47-1.52c-2.68,0-5.17,0.5-7.47,1.52c-2.3,1.01-4.29,2.39-5.97,4.13c-1.68,1.74-3,3.79-3.94,6.14
				c-0.94,2.36-1.41,4.87-1.41,7.56c0,2.68,0.47,5.2,1.41,7.55c0.94,2.35,2.26,4.4,3.94,6.14c1.69,1.74,3.68,3.11,5.97,4.13
				c2.3,1.02,4.79,1.52,7.47,1.52c2.68,0,5.17-0.51,7.47-1.52c2.3-1.02,4.29-2.39,5.98-4.13c1.68-1.73,3-3.79,3.93-6.14
				c0.94-2.36,1.41-4.87,1.41-7.55c0-2.68-0.47-5.2-1.41-7.56C957.26,614.37,955.94,612.32,954.26,610.59 M946.85,739.54
				c-1.27-0.47-2.43-0.87-3.48-1.19c-1.05-0.33-1.95-0.69-2.72-1.06c-0.76-0.38-1.36-0.85-1.79-1.39c-0.43-0.55-0.65-1.25-0.65-2.12
				c0-1.16,0.38-2.12,1.14-2.88c0.76-0.76,1.77-1.14,3.04-1.14c0.98,0,1.9,0.28,2.77,0.82c0.87,0.55,1.54,1.34,2.01,2.39l4.08-4.07
				c-0.94-1.6-2.17-2.81-3.67-3.64c-1.5-0.83-3.29-1.25-5.35-1.25c-1.41,0-2.73,0.25-3.94,0.74c-1.21,0.49-2.28,1.18-3.18,2.09
				c-0.91,0.91-1.61,1.98-2.12,3.21c-0.5,1.23-0.75,2.59-0.75,4.07c0,2.1,0.55,3.88,1.68,5.35c1.13,1.47,2.55,2.55,4.29,3.23
				c1.34,0.51,2.62,0.94,3.85,1.28c1.23,0.34,2.33,0.76,3.29,1.25c0.96,0.49,1.73,1.13,2.31,1.93c0.58,0.8,0.87,1.9,0.87,3.31
				c0,1.92-0.53,3.47-1.6,4.67c-1.07,1.2-2.58,1.8-4.54,1.8c-0.98,0-1.84-0.17-2.6-0.52c-0.77-0.35-1.4-0.8-1.93-1.39
				c-0.52-0.58-0.93-1.27-1.2-2.06c-0.27-0.8-0.41-1.63-0.41-2.5h-6.08c0,1.7,0.3,3.28,0.92,4.75c0.62,1.47,1.48,2.76,2.58,3.89
				c1.1,1.12,2.4,2,3.88,2.63c1.49,0.63,3.1,0.95,4.84,0.95c1.7,0,3.3-0.31,4.78-0.95c1.49-0.63,2.78-1.5,3.88-2.61
				c1.1-1.1,1.98-2.41,2.61-3.91c0.63-1.5,0.96-3.14,0.96-4.92c0-2.9-0.71-5.19-2.12-6.87C951.09,741.74,949.2,740.45,946.85,739.54
				 M1157.38,670.55h4.13v19.56c0,2.28-0.51,4.07-1.52,5.35c-1.02,1.28-2.56,1.93-4.62,1.93c-0.94,0-1.79-0.17-2.55-0.52
				c-0.76-0.34-1.4-0.81-1.93-1.38c-0.53-0.58-0.93-1.26-1.22-2.04c-0.29-0.77-0.43-1.62-0.43-2.53h-6.09
				c0,1.74,0.31,3.35,0.92,4.84c0.61,1.49,1.47,2.78,2.56,3.88c1.09,1.11,2.38,1.97,3.88,2.58c1.5,0.62,3.13,0.93,4.86,0.93
				c1.92,0,3.64-0.33,5.17-0.98c1.51-0.66,2.81-1.57,3.86-2.75c1.05-1.18,1.84-2.57,2.39-4.18c0.54-1.61,0.81-3.38,0.81-5.3V664.8
				h-10.21V670.55z M1232.52,702.2c1.49-0.63,2.78-1.5,3.88-2.61c1.1-1.1,1.98-2.41,2.61-3.91c0.63-1.51,0.95-3.15,0.95-4.93
				c0-2.89-0.71-5.18-2.12-6.87c-1.41-1.68-3.29-2.98-5.65-3.88c-1.27-0.47-2.42-0.87-3.47-1.19c-1.05-0.33-1.96-0.68-2.72-1.06
				c-0.76-0.38-1.35-0.84-1.79-1.38c-0.44-0.55-0.65-1.25-0.65-2.12c0-1.16,0.38-2.12,1.14-2.88c0.76-0.76,1.77-1.14,3.04-1.14
				c0.98,0,1.91,0.27,2.78,0.81c0.87,0.55,1.54,1.35,2.01,2.39l4.07-4.07c-0.94-1.6-2.16-2.81-3.66-3.64
				c-1.51-0.83-3.28-1.25-5.35-1.25c-1.41,0-2.72,0.25-3.93,0.73c-1.22,0.49-2.28,1.19-3.18,2.09c-0.91,0.9-1.62,1.97-2.12,3.2
				c-0.51,1.23-0.77,2.59-0.77,4.07c0,2.1,0.56,3.88,1.68,5.35c1.12,1.47,2.56,2.54,4.29,3.24c1.34,0.51,2.62,0.93,3.85,1.27
				c1.23,0.34,2.33,0.76,3.29,1.25c0.96,0.49,1.73,1.13,2.31,1.93c0.58,0.8,0.87,1.9,0.87,3.31c0,1.93-0.53,3.48-1.6,4.68
				c-1.07,1.19-2.59,1.79-4.54,1.79c-0.98,0-1.84-0.17-2.61-0.52c-0.76-0.34-1.4-0.81-1.93-1.38c-0.52-0.58-0.92-1.27-1.19-2.07
				c-0.28-0.8-0.41-1.63-0.41-2.5h-6.08c0,1.71,0.3,3.29,0.92,4.76c0.62,1.46,1.48,2.76,2.58,3.88c1.11,1.13,2.4,2,3.88,2.64
				c1.49,0.63,3.1,0.95,4.84,0.95C1229.45,703.16,1231.04,702.84,1232.52,702.2 M1250.4,724.33h-23.36v5.76h8.64v32.27h6.09v-32.27
				h8.64V724.33z M1307.88,743.43c-1.41-1.69-3.3-2.98-5.65-3.88c-1.27-0.47-2.42-0.87-3.47-1.19c-1.06-0.33-1.96-0.69-2.72-1.06
				c-0.76-0.38-1.35-0.85-1.79-1.39c-0.43-0.55-0.65-1.25-0.65-2.12c0-1.16,0.39-2.12,1.14-2.88c0.76-0.76,1.78-1.14,3.05-1.14
				c0.98,0,1.9,0.28,2.77,0.82c0.87,0.55,1.54,1.34,2.01,2.39l4.08-4.07c-0.94-1.6-2.17-2.81-3.66-3.64
				c-1.51-0.83-3.29-1.25-5.36-1.25c-1.41,0-2.72,0.25-3.94,0.74c-1.21,0.49-2.27,1.18-3.18,2.09c-0.9,0.91-1.61,1.98-2.12,3.21
				c-0.51,1.23-0.76,2.59-0.76,4.07c0,2.1,0.56,3.88,1.68,5.35c1.13,1.47,2.56,2.55,4.29,3.23c1.34,0.51,2.62,0.94,3.85,1.28
				c1.23,0.34,2.33,0.76,3.29,1.25c0.96,0.49,1.73,1.13,2.31,1.93c0.58,0.8,0.87,1.9,0.87,3.31c0,1.92-0.54,3.47-1.6,4.67
				c-1.07,1.2-2.58,1.8-4.54,1.8c-0.98,0-1.84-0.17-2.61-0.52c-0.76-0.35-1.4-0.8-1.93-1.39c-0.52-0.58-0.92-1.27-1.19-2.06
				c-0.28-0.8-0.41-1.63-0.41-2.5h-6.08c0,1.7,0.31,3.28,0.93,4.75c0.62,1.47,1.47,2.76,2.59,3.89c1.1,1.12,2.39,2,3.88,2.63
				c1.49,0.63,3.1,0.95,4.84,0.95c1.7,0,3.29-0.31,4.78-0.95c1.49-0.63,2.78-1.5,3.89-2.61c1.11-1.1,1.97-2.41,2.61-3.91
				c0.64-1.5,0.95-3.14,0.95-4.92C1310,747.4,1309.29,745.11,1307.88,743.43 M1216,750.46c0,1.95-0.56,3.52-1.68,4.7
				c-1.13,1.18-2.66,1.77-4.62,1.77c-1.96,0-3.5-0.59-4.62-1.77c-1.13-1.18-1.68-2.74-1.68-4.7v-26.14h-6.08v25.81
				c0,1.84,0.3,3.54,0.93,5.08c0.61,1.54,1.47,2.86,2.58,3.96c1.1,1.11,2.42,1.97,3.94,2.59c1.51,0.61,3.17,0.92,4.94,0.92
				c1.78,0,3.42-0.3,4.95-0.92c1.51-0.62,2.83-1.48,3.93-2.59c1.1-1.1,1.96-2.42,2.59-3.96c0.61-1.54,0.92-3.23,0.92-5.08v-25.81
				H1216V750.46z M1259.42,750.35l6.46-17.88l6.47,17.88H1259.42z M1262.84,724.33l-14.07,38.03h6.36l2.28-6.25h16.95l2.28,6.25
				h6.36l-14.07-38.03H1262.84z M1117.93,730.09h8.64v32.27h6.09v-32.27h8.64v-5.76h-23.37V730.09z M1145.75,730.09h5.76v26.52
				h-5.76v5.75h17.61v-5.75h-5.76v-26.52h5.76v-5.76h-17.61V730.09z M1111.79,683.81c0,1.96-0.3,3.77-0.92,5.43
				c-0.62,1.67-1.48,3.1-2.61,4.29c-1.13,1.19-2.45,2.14-3.99,2.83c-1.54,0.69-3.24,1.03-5.09,1.03c-1.84,0-3.54-0.36-5.08-1.06
				c-1.54-0.71-2.87-1.67-3.99-2.88c-1.12-1.21-1.99-2.64-2.61-4.29c-0.61-1.65-0.92-3.44-0.92-5.36c0-1.88,0.31-3.66,0.92-5.32
				c0.62-1.66,1.49-3.11,2.61-4.32c1.13-1.21,2.45-2.17,3.99-2.88c1.54-0.71,3.23-1.06,5.08-1.06c2.32,0,4.31,0.49,5.98,1.47
				c1.66,0.98,3.07,2.3,4.24,3.96l4.24-4.24c-1.74-2.1-3.81-3.78-6.22-5.05c-2.41-1.27-5.15-1.9-8.23-1.9
				c-2.67,0-5.17,0.51-7.47,1.52c-2.3,1.01-4.29,2.39-5.98,4.13c-1.68,1.74-3,3.78-3.94,6.14c-0.94,2.35-1.41,4.87-1.41,7.55
				c0,2.68,0.47,5.2,1.41,7.55c0.94,2.36,2.26,4.4,3.94,6.14c1.68,1.74,3.68,3.12,5.98,4.13c2.3,1.02,4.79,1.52,7.47,1.52
				c2.68,0,5.17-0.51,7.47-1.52c2.3-1.01,4.29-2.39,5.97-4.13c1.69-1.74,3-3.78,3.94-6.14c0.95-2.36,1.41-4.87,1.41-7.55H1111.79z
				 M1168.09,730.09h8.64v32.27h6.08v-32.27h8.64v-5.76h-23.36V730.09z M1192.21,697.4c-1.84,0-3.54-0.36-5.07-1.06
				c-1.54-0.71-2.88-1.67-4-2.88c-1.12-1.21-1.99-2.64-2.61-4.29c-0.61-1.65-0.92-3.44-0.92-5.36c0-1.88,0.31-3.66,0.92-5.32
				c0.62-1.66,1.49-3.11,2.61-4.32c1.12-1.21,2.45-2.17,4-2.88c1.53-0.71,3.23-1.06,5.07-1.06c1.85,0,3.54,0.36,5.08,1.06
				s2.87,1.66,3.99,2.88c1.12,1.21,1.99,2.66,2.61,4.32c0.61,1.67,0.92,3.44,0.92,5.32c0,1.92-0.3,3.71-0.92,5.36
				c-0.62,1.65-1.49,3.08-2.61,4.29c-1.13,1.21-2.45,2.17-3.99,2.88C1195.75,697.04,1194.06,697.4,1192.21,697.4 M1205.66,697.5
				c1.68-1.74,3-3.78,3.93-6.14c0.94-2.36,1.41-4.87,1.41-7.55c0-2.68-0.47-5.2-1.41-7.55c-0.94-2.36-2.25-4.4-3.93-6.14
				c-1.69-1.74-3.68-3.12-5.98-4.13c-2.3-1.02-4.79-1.52-7.47-1.52c-2.68,0-5.17,0.51-7.47,1.52c-2.3,1.01-4.29,2.39-5.97,4.13
				c-1.68,1.74-3,3.78-3.94,6.14c-0.94,2.35-1.41,4.87-1.41,7.55c0,2.68,0.47,5.2,1.41,7.55c0.94,2.36,2.26,4.4,3.94,6.14
				c1.69,1.74,3.68,3.12,5.97,4.13c2.3,1.02,4.79,1.52,7.47,1.52c2.69,0,5.17-0.51,7.47-1.52
				C1201.98,700.62,1203.97,699.24,1205.66,697.5 M887.24,748.7c-0.61,1.65-1.49,3.08-2.61,4.29c-1.12,1.22-2.45,2.17-3.99,2.88
				c-1.54,0.71-3.23,1.06-5.08,1.06c-1.84,0-3.54-0.36-5.08-1.06c-1.54-0.71-2.87-1.66-3.99-2.88c-1.12-1.21-1.99-2.64-2.61-4.29
				c-0.62-1.65-0.93-3.43-0.93-5.35c0-1.88,0.31-3.66,0.93-5.32c0.61-1.67,1.49-3.11,2.61-4.32c1.12-1.21,2.46-2.17,3.99-2.88
				c1.54-0.71,3.23-1.06,5.08-1.06c1.85,0,3.54,0.35,5.08,1.06c1.54,0.71,2.87,1.67,3.99,2.88c1.12,1.21,1.99,2.65,2.61,4.32
				c0.62,1.67,0.93,3.44,0.93,5.32C888.16,745.26,887.85,747.05,887.24,748.7 M889.01,729.66c-1.69-1.74-3.68-3.11-5.98-4.13
				c-2.3-1.01-4.79-1.52-7.48-1.52c-2.68,0-5.17,0.51-7.47,1.52c-2.3,1.02-4.29,2.39-5.98,4.13c-1.68,1.73-3,3.78-3.93,6.14
				c-0.95,2.35-1.41,4.87-1.41,7.55c0,2.68,0.47,5.2,1.41,7.55c0.94,2.36,2.25,4.4,3.93,6.14c1.69,1.74,3.68,3.11,5.98,4.13
				c2.3,1.02,4.79,1.52,7.47,1.52c2.68,0,5.18-0.5,7.48-1.52c2.3-1.01,4.29-2.39,5.98-4.13c1.68-1.74,3-3.79,3.93-6.14
				c0.94-2.35,1.41-4.87,1.41-7.55c0-2.68-0.47-5.2-1.41-7.55C892.01,733.44,890.69,731.39,889.01,729.66 M1149.99,611.03h5.76
				v26.51h-5.76v5.76h17.6v-5.76h-5.76v-26.51h5.76v-5.76h-17.6V611.03z M936.41,702.23c1.52,0.62,3.17,0.93,4.94,0.93
				c1.78,0,3.42-0.31,4.95-0.93c1.51-0.61,2.83-1.47,3.93-2.58c1.1-1.1,1.96-2.42,2.59-3.96c0.61-1.54,0.92-3.24,0.92-5.09V664.8
				h-6.08v26.13c0,1.95-0.56,3.53-1.68,4.7c-1.13,1.18-2.66,1.77-4.62,1.77c-1.95,0-3.49-0.59-4.62-1.77
				c-1.13-1.17-1.68-2.75-1.68-4.7V664.8h-6.08v25.81c0,1.85,0.3,3.54,0.92,5.09c0.61,1.54,1.48,2.86,2.58,3.96
				C933.58,700.76,934.89,701.62,936.41,702.23 M1013.68,613.41l6.46,17.88h-12.93L1013.68,613.41z M1005.2,637.05h16.95l2.28,6.25
				h6.36l-14.07-38.03h-6.08l-14.07,38.03h6.36L1005.2,637.05z M1009.49,670.55v-5.76h-17.6v5.76h5.76v26.52h-5.76v5.76h17.6v-5.76
				h-5.76v-26.52H1009.49z M1041.54,611.03h5.11c1.63,0,2.85,0.48,3.67,1.44c0.81,0.96,1.22,2.18,1.22,3.66
				c0,1.49-0.41,2.71-1.22,3.67c-0.82,0.96-2.04,1.44-3.67,1.44h-5.11V611.03z M1041.54,626.99h0.88l8.15,16.3h6.96l-8.64-16.52
				c1.16-0.22,2.26-0.61,3.31-1.19c1.05-0.58,1.96-1.31,2.74-2.2c0.78-0.89,1.41-1.94,1.88-3.15c0.47-1.21,0.71-2.58,0.71-4.1
				c0-1.73-0.29-3.28-0.87-4.62c-0.58-1.34-1.36-2.48-2.34-3.4c-0.97-0.93-2.13-1.63-3.45-2.12c-1.32-0.49-2.75-0.73-4.27-0.73
				h-11.14v38.03h6.08V626.99z M867.95,617.11l12.22,26.19h6.74v-38.03h-6.09v26.19l-12.22-26.19h-6.73v38.03h6.08V617.11z
				 M900.77,628.3l3.31-4.62l10.65,19.62h7.12l-13.8-25.21l9.13-12.82h-7.17l-9.24,13.26v-13.26h-6.09v38.03h6.09V628.3z
				 M1068.87,618.95c0.61-1.67,1.49-3.11,2.61-4.32c1.12-1.21,2.45-2.17,3.99-2.88s3.24-1.06,5.08-1.06c1.85,0,3.54,0.35,5.08,1.06
				c1.54,0.71,2.87,1.66,3.99,2.88c1.13,1.21,1.99,2.65,2.61,4.32c0.61,1.66,0.93,3.44,0.93,5.33c0,1.92-0.31,3.7-0.93,5.35
				c-0.62,1.65-1.49,3.08-2.61,4.29c-1.12,1.21-2.45,2.17-3.99,2.88c-1.54,0.7-3.23,1.06-5.08,1.06c-1.84,0-3.54-0.36-5.08-1.06
				c-1.54-0.71-2.87-1.67-3.99-2.88c-1.13-1.21-2-2.64-2.61-4.29c-0.62-1.65-0.92-3.43-0.92-5.35
				C1067.96,622.39,1068.26,620.62,1068.87,618.95 M1067.11,637.97c1.68,1.74,3.68,3.11,5.98,4.13c2.3,1.02,4.79,1.52,7.47,1.52
				c2.68,0,5.17-0.51,7.47-1.52c2.3-1.02,4.29-2.39,5.98-4.13c1.68-1.73,3-3.79,3.94-6.14c0.94-2.36,1.41-4.87,1.41-7.55
				c0-2.68-0.48-5.2-1.41-7.56c-0.95-2.35-2.26-4.4-3.94-6.14c-1.68-1.74-3.68-3.11-5.98-4.13c-2.3-1.02-4.79-1.52-7.47-1.52
				c-2.68,0-5.17,0.5-7.47,1.52c-2.3,1.01-4.29,2.39-5.98,4.13c-1.68,1.74-3,3.79-3.94,6.14c-0.94,2.36-1.41,4.87-1.41,7.56
				c0,2.68,0.47,5.2,1.41,7.55C1064.11,634.18,1065.42,636.24,1067.11,637.97 M1061.7,672.95l6.47,17.87h-12.93L1061.7,672.95z
				 M1050.95,702.83l2.28-6.25h16.95l2.28,6.25h6.36l-14.07-38.03h-6.08l-14.07,38.03H1050.95z M1179.39,611.03h5.11
				c1.62,0,2.85,0.48,3.66,1.44c0.81,0.96,1.22,2.18,1.22,3.66c0,1.49-0.41,2.71-1.22,3.67c-0.82,0.96-2.04,1.44-3.66,1.44h-5.11
				V611.03z M1179.39,626.99h0.87l8.15,16.3h6.96l-8.64-16.52c1.16-0.22,2.26-0.61,3.31-1.19c1.05-0.58,1.97-1.31,2.75-2.2
				c0.77-0.89,1.4-1.94,1.87-3.15c0.47-1.21,0.71-2.58,0.71-4.1c0-1.73-0.29-3.28-0.87-4.62c-0.58-1.34-1.35-2.48-2.34-3.4
				c-0.98-0.93-2.13-1.63-3.45-2.12c-1.32-0.49-2.75-0.73-4.27-0.73h-11.14v38.03h6.09V626.99z M1139.23,670.55v-5.76h-17.6v5.76
				h5.76v26.52h-5.76v5.76h17.6v-5.76h-5.76v-26.52H1139.23z M856.16,611.03v-5.76h-17.6v5.76h5.76v26.51h-5.76v5.76h17.6v-5.76
				h-5.75v-26.51H856.16z M1116.09,637.86c-0.98,0-1.85-0.17-2.61-0.52c-0.76-0.34-1.4-0.8-1.93-1.38c-0.52-0.58-0.92-1.27-1.2-2.06
				c-0.27-0.8-0.41-1.63-0.41-2.5h-6.08c0,1.71,0.3,3.29,0.92,4.76c0.62,1.47,1.48,2.76,2.58,3.88c1.1,1.13,2.4,2,3.88,2.64
				c1.49,0.63,3.1,0.95,4.84,0.95c1.7,0,3.29-0.32,4.78-0.95c1.48-0.63,2.78-1.5,3.88-2.61c1.1-1.11,1.98-2.41,2.61-3.91
				c0.63-1.5,0.95-3.14,0.95-4.92c0-2.89-0.71-5.19-2.12-6.87s-3.3-2.98-5.65-3.89c-1.27-0.47-2.43-0.87-3.48-1.19
				c-1.05-0.33-1.95-0.68-2.72-1.06s-1.36-0.84-1.79-1.39c-0.44-0.54-0.66-1.25-0.66-2.12c0-1.16,0.38-2.12,1.14-2.88
				c0.77-0.76,1.77-1.14,3.05-1.14c0.97,0,1.9,0.27,2.77,0.81c0.87,0.54,1.54,1.34,2.01,2.39l4.07-4.07
				c-0.94-1.59-2.16-2.81-3.67-3.64c-1.5-0.83-3.28-1.25-5.34-1.25c-1.41,0-2.73,0.25-3.94,0.73c-1.21,0.49-2.28,1.18-3.18,2.09
				c-0.91,0.91-1.61,1.98-2.12,3.21c-0.51,1.23-0.76,2.59-0.76,4.07c0,2.1,0.56,3.89,1.69,5.36c1.12,1.46,2.55,2.54,4.29,3.23
				c1.34,0.51,2.63,0.94,3.86,1.28c1.23,0.34,2.33,0.76,3.29,1.25c0.96,0.49,1.73,1.13,2.31,1.93c0.58,0.8,0.87,1.9,0.87,3.31
				c0,1.92-0.53,3.48-1.6,4.68C1119.56,637.26,1118.05,637.86,1116.09,637.86 M849.32,693.45c-1.13-1.21-1.99-2.64-2.61-4.29
				c-0.62-1.65-0.93-3.44-0.93-5.36c0-1.88,0.3-3.66,0.93-5.32c0.61-1.66,1.48-3.11,2.61-4.32c1.12-1.21,2.45-2.17,3.99-2.88
				c1.54-0.71,3.23-1.06,5.08-1.06c1.84,0,3.54,0.36,5.09,1.06c1.53,0.71,2.86,1.66,3.99,2.88c1.13,1.21,2,2.66,2.61,4.32
				c0.62,1.67,0.92,3.44,0.92,5.32c0,1.92-0.3,3.71-0.92,5.36c-0.61,1.65-1.48,3.08-2.61,4.29c-1.12,1.21-2.45,2.17-3.99,2.88
				c-1.54,0.71-3.24,1.06-5.09,1.06c-1.85,0-3.54-0.36-5.08-1.06C851.77,695.63,850.44,694.67,849.32,693.45 M865.86,701.63
				c2.3-1.01,4.3-2.39,5.98-4.13c1.69-1.74,3-3.78,3.94-6.14s1.41-4.87,1.41-7.55c0-2.68-0.47-5.2-1.41-7.55
				c-0.94-2.36-2.25-4.4-3.94-6.14c-1.68-1.74-3.68-3.12-5.98-4.13c-2.3-1.02-4.79-1.52-7.47-1.52s-5.17,0.51-7.47,1.52
				c-2.3,1.01-4.29,2.39-5.97,4.13c-1.69,1.74-3,3.78-3.94,6.14c-0.94,2.35-1.41,4.87-1.41,7.55c0,2.68,0.47,5.2,1.41,7.55
				s2.26,4.4,3.94,6.14c1.68,1.74,3.67,3.12,5.97,4.13c2.31,1.02,4.79,1.52,7.47,1.52S863.56,702.65,865.86,701.63 M831.06,753.67
				L819,724.33h-6.74v38.03h6.08v-24.12l10,24.12h5.43l10-24.12v24.12h6.08v-38.03h-6.74L831.06,753.67z M827.12,619.8
				c-0.82,0.96-2.04,1.44-3.67,1.44h-5.11v-10.21h5.11c1.63,0,2.85,0.48,3.67,1.44c0.81,0.96,1.22,2.18,1.22,3.66
				C828.34,617.61,827.93,618.84,827.12,619.8 M831.74,623.38c0.78-0.89,1.4-1.94,1.87-3.15c0.47-1.21,0.71-2.58,0.71-4.1
				c0-1.73-0.28-3.28-0.87-4.62c-0.58-1.34-1.36-2.48-2.34-3.4c-0.97-0.93-2.13-1.63-3.45-2.12c-1.32-0.49-2.75-0.73-4.27-0.73
				h-11.14v38.03h6.08v-16.3h0.88l8.15,16.3h6.95l-8.64-16.52c1.16-0.22,2.26-0.61,3.31-1.19
				C830.04,625,830.96,624.27,831.74,623.38 M812.26,702.83h6.08v-15l3.32-4.62l10.65,19.62h7.12l-13.8-25.21l9.13-12.82h-7.17
				l-9.24,13.26V664.8h-6.08V702.83z"/>
		</g>
	</g>
</g>
</svg>
