<?xml version="1.0" encoding="UTF-8"?><svg id="Layer_1" xmlns="http://www.w3.org/2000/svg" viewBox="0 0 729.74 100.96"><defs><style>.cls-1{fill:#000;}</style></defs><polygon class="cls-1" points="91.2 65.54 90.69 65.54 68.89 6.16 39.13 6.16 39.13 96.96 59.52 96.96 58.75 33.35 59.27 33.35 82.61 96.96 97.36 96.96 120.96 33.48 121.47 33.48 120.96 96.96 142.12 96.96 142.12 6.16 111.72 6.16 91.2 65.54"/><path class="cls-1" d="M187.37,33.22c-6.07,0-11.5,.73-16.29,2.18-4.79,1.46-8.98,3.93-12.57,7.44l11.03,10.9c1.97-1.71,4.3-3.06,6.99-4.04,2.69-.98,5.66-1.47,8.91-1.47,4.27,0,7.39,.81,9.36,2.44,1.97,1.62,2.95,4.1,2.95,7.44v2.44c-2.56-.52-5.09-.92-7.57-1.22-2.48-.3-4.96-.45-7.44-.45-8.04,0-14.48,1.73-19.3,5.2-4.83,3.46-7.25,8.4-7.25,14.81,0,3.59,.66,6.65,1.99,9.17,1.32,2.52,3.08,4.58,5.26,6.16,2.18,1.58,4.62,2.71,7.31,3.4,2.69,.68,5.45,1.02,8.27,1.02,3.59,0,7.08-.69,10.45-2.05,3.38-1.36,5.96-3.46,7.76-6.28h.26v6.67h19.11V60.15c0-9.15-2.27-15.92-6.8-20.33-4.53-4.4-12.01-6.61-22.44-6.61Zm10.26,40.91c0,3.85-1.11,6.73-3.33,8.66-2.23,1.93-5.13,2.89-8.72,2.89-2.91,0-5.2-.6-6.86-1.8s-2.5-3.03-2.5-5.52,.83-4.51,2.5-6.09,4.38-2.37,8.14-2.37c2.22,0,4.15,.19,5.77,.58s3.29,.79,5,1.22v2.44Z"/><path class="cls-1" d="M271.06,33.22c-4.02,0-7.57,1-10.64,3.01-3.08,2.01-5.39,4.6-6.93,7.76h-.38v-8.98h-19.88v61.95h20.78v-30.14c0-2.05,.32-4.02,.96-5.9,.64-1.88,1.6-3.53,2.88-4.94,1.28-1.41,2.84-2.54,4.68-3.4,1.84-.85,3.95-1.28,6.35-1.28,.94,0,2.12,.07,3.53,.19,1.41,.13,2.54,.28,3.4,.45v-18.08c-.69-.17-1.41-.32-2.18-.45-.77-.13-1.63-.19-2.56-.19Z"/><polygon class="cls-1" points="318.55 75.03 318.16 75.03 304.44 35.02 281.35 35.02 306.62 96.96 329.19 96.96 354.46 35.02 332.14 35.02 318.55 75.03"/><path class="cls-1" d="M415.71,42.58c-2.69-2.91-5.94-5.2-9.75-6.86-3.81-1.67-8.06-2.5-12.76-2.5s-8.96,.81-13.02,2.44c-4.06,1.63-7.61,3.91-10.64,6.86-3.04,2.95-5.45,6.5-7.25,10.65-1.8,4.15-2.69,8.79-2.69,13.91s.94,9.81,2.82,13.79c1.88,3.98,4.36,7.31,7.44,10.01,3.08,2.69,6.63,4.74,10.65,6.15,4.02,1.41,8.21,2.12,12.57,2.12,3.16,0,6.24-.36,9.24-1.09,2.99-.73,5.77-1.75,8.34-3.08,2.56-1.32,4.87-2.86,6.93-4.62,2.05-1.75,3.76-3.66,5.13-5.71l-14.36-7.95c-1.2,1.54-2.97,3.12-5.32,4.75-2.35,1.62-5.28,2.44-8.79,2.44-3.93,0-7.31-1.13-10.13-3.4-2.82-2.26-4.45-5.49-4.87-9.68h44.63c.09-.85,.15-1.73,.19-2.63s.06-1.95,.06-3.14c0-4.36-.73-8.47-2.18-12.31-1.46-3.85-3.53-7.22-6.22-10.13Zm-36.62,17.06c.6-3.42,2.09-6.35,4.49-8.79,2.39-2.44,5.56-3.66,9.49-3.66,3.68,0,6.74,1.2,9.17,3.59,2.44,2.39,3.66,5.35,3.66,8.85h-26.8Z"/><rect class="cls-1" x="437.55" width="21.16" height="96.96"/><path class="cls-1" d="M531.17,42.07c-3.16-2.82-6.84-5-11.03-6.54-4.19-1.54-8.64-2.31-13.34-2.31s-9.13,.77-13.28,2.31-7.78,3.72-10.9,6.54c-3.12,2.82-5.58,6.27-7.37,10.32-1.8,4.06-2.69,8.62-2.69,13.66s.9,9.6,2.69,13.66,4.25,7.55,7.37,10.45c3.12,2.91,6.75,5.13,10.9,6.67,4.15,1.54,8.57,2.31,13.28,2.31s9.15-.77,13.34-2.31c4.19-1.54,7.87-3.76,11.03-6.67,3.16-2.9,5.66-6.39,7.5-10.45,1.84-4.06,2.76-8.61,2.76-13.66s-.92-9.6-2.76-13.66c-1.84-4.06-4.34-7.5-7.5-10.32Zm-10.97,29.88c-.64,1.88-1.58,3.53-2.82,4.94-1.24,1.41-2.74,2.52-4.49,3.33-1.75,.81-3.74,1.22-5.96,1.22s-4.21-.41-5.96-1.22c-1.75-.81-3.23-1.92-4.42-3.33-1.2-1.41-2.14-3.06-2.82-4.94-.69-1.88-1.02-3.85-1.02-5.9s.32-4,.96-5.84c.64-1.84,1.58-3.46,2.82-4.87s2.71-2.52,4.43-3.33c1.71-.81,3.67-1.22,5.9-1.22s4.21,.41,5.96,1.22,3.25,1.92,4.49,3.33c1.24,1.41,2.2,3.04,2.88,4.87,.69,1.84,1.03,3.79,1.03,5.84s-.32,4.02-.96,5.9Z"/><path class="cls-1" d="M598.38,66.05c0,4.36-1,8.01-3.01,10.96s-4.98,4.43-8.91,4.43-6.84-1.3-8.46-3.91c-1.63-2.61-2.44-6.01-2.44-10.2V35.02h-20.91v35.01c0,4.02,.47,7.76,1.41,11.22s2.39,6.46,4.36,8.98,4.42,4.51,7.37,5.96c2.95,1.45,6.48,2.18,10.58,2.18,4.36,0,8.32-.83,11.86-2.5,3.55-1.67,6.3-4.12,8.27-7.37h.39v8.47h20.26V35.02h-20.78v31.04Z"/><path class="cls-1" d="M682.05,64.64c-2.27-1.45-4.85-2.58-7.76-3.4-2.91-.81-5.94-1.48-9.1-1.99-4.28-.68-7.61-1.41-10.01-2.18-2.39-.77-3.59-2.01-3.59-3.72,0-.94,.3-1.73,.9-2.37s1.37-1.17,2.31-1.6c.94-.43,1.99-.75,3.14-.96s2.33-.32,3.53-.32c1.37,0,2.86,.17,4.49,.51,1.62,.34,3.23,.81,4.81,1.41,1.58,.6,3.08,1.28,4.49,2.05,1.41,.77,2.63,1.58,3.66,2.44l10.52-11.54c-1.8-1.54-3.85-2.93-6.16-4.17-2.31-1.24-4.74-2.27-7.31-3.08-2.56-.81-5.19-1.43-7.89-1.86s-5.32-.64-7.89-.64c-3.34,0-6.69,.41-10.07,1.22-3.38,.81-6.39,2.08-9.04,3.79-2.65,1.71-4.81,3.87-6.48,6.48-1.67,2.61-2.5,5.75-2.5,9.43s.94,6.73,2.82,8.91c1.88,2.18,4.21,3.91,6.99,5.2,2.78,1.28,5.79,2.27,9.04,2.95,3.25,.69,6.26,1.33,9.04,1.92,2.78,.6,5.11,1.33,6.99,2.18s2.82,2.14,2.82,3.85c0,1.97-1.05,3.38-3.14,4.23s-4.3,1.28-6.61,1.28c-3.08,0-6.46-.77-10.13-2.31-3.68-1.54-6.88-3.55-9.62-6.03l-11.16,11.93c1.45,1.2,3.27,2.44,5.45,3.72,2.18,1.28,4.62,2.46,7.31,3.53,2.69,1.07,5.64,1.94,8.85,2.63,3.21,.68,6.56,1.02,10.07,1.02s6.84-.38,10.26-1.15c3.42-.77,6.5-1.99,9.23-3.65,2.74-1.67,4.96-3.83,6.67-6.48,1.71-2.65,2.57-5.9,2.57-9.75,0-3.16-.69-5.83-2.05-8.02-1.37-2.18-3.19-4-5.45-5.45Z"/><path class="cls-1" d="M22.65,7.55c-1.24-1.24-2.68-2.2-4.3-2.88-1.63-.67-3.32-1.01-5.08-1.01s-3.45,.34-5.08,1.01c-1.63,.67-3.06,1.63-4.3,2.88-1.24,1.24-2.2,2.68-2.88,4.3C.34,13.48,0,15.17,0,16.93c0,1.76,.34,3.45,1.01,5.08,.67,1.63,1.63,3.06,2.88,4.3,1.24,1.24,2.68,2.2,4.3,2.88,1.63,.67,3.32,1.01,5.08,1.01s3.45-.34,5.08-1.01c1.63-.67,3.06-1.63,4.3-2.88s2.2-2.68,2.88-4.3c.67-1.63,1.01-3.32,1.01-5.08s-.34-3.45-1.01-5.08c-.67-1.63-1.63-3.06-2.88-4.3Z"/><path class="cls-1" d="M728.73,82.62c-.67-1.63-1.63-3.06-2.88-4.3s-2.68-2.2-4.3-2.88c-1.63-.67-3.32-1.01-5.08-1.01s-3.45,.34-5.08,1.01c-1.63,.67-3.06,1.63-4.3,2.88-1.24,1.24-2.2,2.68-2.88,4.3-.67,1.63-1.01,3.32-1.01,5.08s.34,3.45,1.01,5.08c.67,1.63,1.63,3.06,2.88,4.3,1.24,1.24,2.68,2.2,4.3,2.88,1.63,.67,3.32,1.01,5.08,1.01s3.45-.34,5.08-1.01c1.63-.67,3.06-1.63,4.3-2.88s2.2-2.68,2.88-4.3c.67-1.62,1.01-3.32,1.01-5.08,0-1.76-.34-3.45-1.01-5.08Z"/></svg>