<?xml version="1.0" encoding="UTF-8"?><svg id="Layer_1" xmlns="http://www.w3.org/2000/svg" viewBox="0 0 820 360"><defs><style>.cls-1{fill:#fff;}</style></defs><path class="cls-1" d="M730,90H90v180H730V90ZM112,112H708V248H112V112Zm528,98h47v20h-69v-100h68v20h-46v19h39.99v19h-39.99v22Zm-36.5-9c0,18.86-18.37,31.5-38.5,31.5-17.63,0-31.15-7.71-40-17.5l14-15c6.84,7.33,16.11,12.5,26,12.5,6.81,0,15-3.75,15-10.5,0-9.35-12.89-12.75-22-15-14.98-3.7-27-14.69-27-30,0-19,15.25-29.5,36-29.5,15.73,0,26.14,5.22,34.37,13.46l-13.01,14.36c-6.3-5.22-13.08-8.82-21.36-8.82-5.72,0-13,3.87-13,9.5,0,8.3,11.85,11.11,20,13,17.79,4.13,29.5,13.58,29.5,32Zm-113.5-71h22v100h-22v-100Zm-57.54,63l18.65,37h24.89l-22.12-40.03c10.35-5.77,16.34-15.56,16.34-28.64,0-18.06-12.63-31.33-35.08-31.33h-37.14v100h22v-37h12.46Zm1.49-17.88h-13.94v-26.54h13.94c8.6,0,13.49,5.33,13.49,13.35,0,7.3-4.78,13.19-13.49,13.19Zm-83.51-45.12h-36.4v100h21.96v-35.24h15.48c18.71,0,34.02-11.78,34.02-32.52,0-18.89-12.56-32.24-35.07-32.24Zm-1.2,46h-13.23v-27h13.08c8.64,0,13.92,5.49,13.92,13.68s-5.19,13.32-13.77,13.32Zm-102.23,34h49v20h-71v-100h68v20h-46v19h36v19h-36v22Zm-78.54-17l18.65,37h24.89l-22.12-40.03c10.35-5.77,16.34-15.56,16.34-28.64,0-18.06-12.63-31.33-35.08-31.33h-37.14v100h22v-37h12.46Zm1.49-17.88h-13.94v-26.54h13.94c8.6,0,13.49,5.33,13.49,13.35,0,7.3-4.78,13.19-13.49,13.19Z"/></svg>