<?xml version="1.0" encoding="utf-8"?>
<!-- Generator: Adobe Illustrator 26.3.1, SVG Export Plug-In . SVG Version: 6.00 Build 0)  -->
<svg version="1.1" id="Layer_1" xmlns="http://www.w3.org/2000/svg" xmlns:xlink="http://www.w3.org/1999/xlink" x="0px" y="0px"
	 viewBox="0 0 487.27 340.57" style="enable-background:new 0 0 487.27 340.57;" xml:space="preserve">
<path id="Icon_simple-youtube" d="M477.1,52.59c-5.74-20.58-21.83-36.67-42.41-42.41C396.71,0,243.85,0,243.85,0
	S91.39-0.2,53.02,10.18c-20.58,5.74-36.67,21.83-42.41,42.41C3.41,91.48-0.14,130.95,0,170.5c-0.12,39.4,3.43,78.72,10.6,117.46
	c5.75,20.58,21.83,36.66,42.41,42.41c37.91,10.2,190.84,10.2,190.84,10.2s152.45,0,190.84-10.2c20.58-5.75,36.66-21.83,42.41-42.41
	c7.02-38.75,10.42-78.07,10.16-117.45c0.29-39.53-3.11-79-10.16-117.9V52.59z M195.05,243.42V97.34l127.28,73.12L195.05,243.42z"/>
</svg>
